<svg width="48" height="48" viewBox="0 0 48 48" fill="none" xmlns="http://www.w3.org/2000/svg">
<rect width="48" height="48" rx="12" fill="url(#paint0_linear_241_199)"/>
<path d="M24 18.1666V34.5" stroke="white" stroke-width="2.66667" stroke-linecap="round" stroke-linejoin="round"/>
<path d="M13.5 31C13.1906 31 12.8939 30.8771 12.6751 30.6583C12.4563 30.4395 12.3334 30.1428 12.3334 29.8333V14.6667C12.3334 14.3572 12.4563 14.0605 12.6751 13.8417C12.8939 13.6229 13.1906 13.5 13.5 13.5H19.3334C20.5711 13.5 21.758 13.9917 22.6332 14.8668C23.5084 15.742 24 16.929 24 18.1667C24 16.929 24.4917 15.742 25.3669 14.8668C26.242 13.9917 27.429 13.5 28.6667 13.5H34.5C34.8095 13.5 35.1062 13.6229 35.325 13.8417C35.5438 14.0605 35.6667 14.3572 35.6667 14.6667V29.8333C35.6667 30.1428 35.5438 30.4395 35.325 30.6583C35.1062 30.8771 34.8095 31 34.5 31H27.5C26.5718 31 25.6815 31.3687 25.0252 32.0251C24.3688 32.6815 24 33.5717 24 34.5C24 33.5717 23.6313 32.6815 22.9749 32.0251C22.3185 31.3687 21.4283 31 20.5 31H13.5Z" stroke="white" stroke-width="2.66667" stroke-linecap="round" stroke-linejoin="round"/>
<defs>
<linearGradient id="paint0_linear_241_199" x1="14.7273" y1="-7.8" x2="-20.8056" y2="44.2431" gradientUnits="userSpaceOnUse">
<stop offset="0.153846" stop-color="#3C886B"/>
<stop offset="1" stop-color="#9AF6D3"/>
</linearGradient>
</defs>
</svg>
