<svg width="48" height="48" viewBox="0 0 48 48" fill="none" xmlns="http://www.w3.org/2000/svg">
<rect width="48" height="48" rx="12" fill="url(#paint0_linear_283_4296)"/>
<path d="M23.9999 15.8333C24.0013 15.3667 23.9093 14.9045 23.7294 14.4739C23.5496 14.0433 23.2854 13.6531 22.9525 13.3261C22.6196 12.9991 22.2247 12.742 21.791 12.5698C21.3573 12.3977 20.8935 12.314 20.427 12.3238C19.9604 12.3335 19.5006 12.4364 19.0744 12.6265C18.6482 12.8165 18.2643 13.0899 17.9454 13.4304C17.6264 13.771 17.3787 14.172 17.2169 14.6097C17.0552 15.0474 16.9826 15.513 17.0034 15.9791C16.3176 16.1555 15.681 16.4855 15.1417 16.9443C14.6023 17.4031 14.1745 17.9787 13.8905 18.6273C13.6066 19.2759 13.4739 19.9807 13.5027 20.6882C13.5314 21.3957 13.7208 22.0873 14.0564 22.7108C13.4663 23.1902 13.0022 23.8066 12.7046 24.5062C12.407 25.2059 12.2849 25.9677 12.3488 26.7253C12.4127 27.4829 12.6608 28.2135 13.0715 28.8533C13.4821 29.4932 14.0429 30.0231 14.705 30.3968C14.6233 31.0294 14.6721 31.6721 14.8484 32.2851C15.0248 32.8981 15.3249 33.4685 15.7303 33.9609C16.1357 34.4534 16.6378 34.8575 17.2055 35.1484C17.7732 35.4392 18.3945 35.6106 19.031 35.6519C19.6676 35.6932 20.3058 35.6035 20.9063 35.3885C21.5069 35.1735 22.057 34.8376 22.5226 34.4017C22.9883 33.9657 23.3596 33.439 23.6137 32.8539C23.8678 32.2688 23.9992 31.6378 23.9999 31V15.8333Z" stroke="white" stroke-width="2.66667" stroke-linecap="round" stroke-linejoin="round"/>
<path d="M24 15.8333C23.9986 15.3667 24.0906 14.9045 24.2705 14.4739C24.4503 14.0433 24.7145 13.6531 25.0474 13.3261C25.3803 12.9991 25.7752 12.742 26.2089 12.5698C26.6426 12.3977 27.1064 12.314 27.5729 12.3238C28.0395 12.3335 28.4993 12.4364 28.9255 12.6265C29.3517 12.8165 29.7356 13.0899 30.0545 13.4304C30.3735 13.771 30.6212 14.172 30.783 14.6097C30.9447 15.0474 31.0173 15.513 30.9965 15.9791C31.6823 16.1555 32.3189 16.4855 32.8582 16.9443C33.3976 17.4031 33.8254 17.9787 34.1094 18.6273C34.3933 19.2759 34.526 19.9807 34.4972 20.6882C34.4685 21.3957 34.2791 22.0873 33.9435 22.7108C34.5336 23.1902 34.9977 23.8066 35.2953 24.5062C35.5929 25.2059 35.715 25.9677 35.6511 26.7253C35.5872 27.4829 35.3391 28.2135 34.9284 28.8533C34.5178 29.4932 33.957 30.0231 33.2948 30.3968C33.3766 31.0294 33.3278 31.6721 33.1515 32.2851C32.9751 32.8981 32.675 33.4685 32.2696 33.9609C31.8642 34.4534 31.3621 34.8575 30.7944 35.1484C30.2267 35.4392 29.6054 35.6106 28.9689 35.6519C28.3323 35.6932 27.6941 35.6035 27.0936 35.3885C26.493 35.1735 25.9429 34.8376 25.4773 34.4017C25.0116 33.9657 24.6403 33.439 24.3862 32.8539C24.1321 32.2688 24.0007 31.6378 24 31V15.8333Z" stroke="white" stroke-width="2.66667" stroke-linecap="round" stroke-linejoin="round"/>
<path d="M27.5 25.1667C26.5205 24.8221 25.6652 24.1948 25.0422 23.3642C24.4192 22.5335 24.0565 21.5368 24 20.5C23.9435 21.5368 23.5808 22.5335 22.9578 23.3642C22.3348 24.1948 21.4795 24.8221 20.5 25.1667" stroke="white" stroke-width="2.66667" stroke-linecap="round" stroke-linejoin="round"/>
<path d="M30.5322 17.5833C30.8146 17.094 30.9743 16.5436 30.9977 15.9791" stroke="white" stroke-width="2.66667" stroke-linecap="round" stroke-linejoin="round"/>
<path d="M17.0034 15.9791C17.0265 16.5435 17.1858 17.0939 17.4678 17.5833" stroke="white" stroke-width="2.66667" stroke-linecap="round" stroke-linejoin="round"/>
<path d="M14.0564 22.712C14.2698 22.5382 14.4982 22.3836 14.7389 22.25" stroke="white" stroke-width="2.66667" stroke-linecap="round" stroke-linejoin="round"/>
<path d="M33.261 22.25C33.5017 22.3836 33.7301 22.5382 33.9435 22.712" stroke="white" stroke-width="2.66667" stroke-linecap="round" stroke-linejoin="round"/>
<path d="M16.9999 31C16.1959 31.0003 15.4054 30.793 14.7051 30.3979" stroke="white" stroke-width="2.66667" stroke-linecap="round" stroke-linejoin="round"/>
<path d="M33.2948 30.3979C32.5945 30.793 31.804 31.0003 31 31" stroke="white" stroke-width="2.66667" stroke-linecap="round" stroke-linejoin="round"/>
<defs>
<linearGradient id="paint0_linear_283_4296" x1="14.7273" y1="-7.8" x2="-20.8056" y2="44.2431" gradientUnits="userSpaceOnUse">
<stop offset="0.153846" stop-color="#3C886B"/>
<stop offset="1" stop-color="#9AF6D3"/>
</linearGradient>
</defs>
</svg>
