<svg width="16" height="16" viewBox="0 0 16 16" fill="none" xmlns="http://www.w3.org/2000/svg">
<path d="M7.99997 3.33329C8.00075 3.06664 7.94821 2.80253 7.84543 2.55649C7.74265 2.31044 7.59171 2.08744 7.40148 1.90058C7.21125 1.71373 6.98558 1.5668 6.73774 1.46844C6.4899 1.37008 6.22489 1.32227 5.9583 1.32783C5.69171 1.33338 5.42892 1.39219 5.18539 1.5008C4.94187 1.6094 4.72251 1.7656 4.54024 1.96022C4.35796 2.15484 4.21644 2.38394 4.124 2.63405C4.03156 2.88417 3.99007 3.15024 4.00197 3.41662C3.6101 3.51738 3.2463 3.70599 2.93812 3.96816C2.62994 4.23034 2.38546 4.5592 2.2232 4.92985C2.06093 5.3005 1.98514 5.70322 2.00156 6.10749C2.01798 6.51177 2.12618 6.90702 2.31797 7.26329C1.98076 7.53724 1.71559 7.88944 1.54553 8.28924C1.37547 8.68905 1.30567 9.12435 1.34221 9.55728C1.37875 9.99021 1.52051 10.4077 1.75517 10.7733C1.98983 11.1389 2.31028 11.4417 2.68863 11.6553C2.64191 12.0168 2.66979 12.384 2.77056 12.7343C2.87132 13.0846 3.04283 13.4105 3.27449 13.6919C3.50615 13.9733 3.79304 14.2043 4.11745 14.3705C4.44185 14.5367 4.79689 14.6346 5.16062 14.6582C5.52435 14.6818 5.88906 14.6306 6.23223 14.5077C6.57539 14.3848 6.88972 14.1929 7.15581 13.9438C7.42189 13.6947 7.63409 13.3937 7.77928 13.0593C7.92447 12.725 7.99958 12.3644 7.99997 12V3.33329Z" stroke="#2EB88A" stroke-width="1.33333" stroke-linecap="round" stroke-linejoin="round"/>
<path d="M8.00001 3.33329C7.99922 3.06664 8.05177 2.80253 8.15455 2.55649C8.25733 2.31044 8.40827 2.08744 8.5985 1.90058C8.78872 1.71373 9.01439 1.5668 9.26224 1.46844C9.51008 1.37008 9.77509 1.32227 10.0417 1.32783C10.3083 1.33338 10.5711 1.39219 10.8146 1.5008C11.0581 1.6094 11.2775 1.7656 11.4597 1.96022C11.642 2.15484 11.7835 2.38394 11.876 2.63405C11.9684 2.88417 12.0099 3.15024 11.998 3.41662C12.3899 3.51738 12.7537 3.70599 13.0619 3.96816C13.37 4.23034 13.6145 4.5592 13.7768 4.92985C13.939 5.3005 14.0148 5.70322 13.9984 6.10749C13.982 6.51177 13.8738 6.90702 13.682 7.26329C14.0192 7.53724 14.2844 7.88944 14.4545 8.28924C14.6245 8.68905 14.6943 9.12435 14.6578 9.55728C14.6212 9.99021 14.4795 10.4077 14.2448 10.7733C14.0101 11.1389 13.6897 11.4417 13.3113 11.6553C13.3581 12.0168 13.3302 12.384 13.2294 12.7343C13.1287 13.0846 12.9571 13.4105 12.7255 13.6919C12.4938 13.9733 12.2069 14.2043 11.8825 14.3705C11.5581 14.5367 11.2031 14.6346 10.8394 14.6582C10.4756 14.6818 10.1109 14.6306 9.76775 14.5077C9.42459 14.3848 9.11025 14.1929 8.84417 13.9438C8.57808 13.6947 8.36589 13.3937 8.2207 13.0593C8.07551 12.725 8.0004 12.3644 8.00001 12V3.33329Z" stroke="#2EB88A" stroke-width="1.33333" stroke-linecap="round" stroke-linejoin="round"/>
<path d="M10 8.66667C9.4403 8.46977 8.95155 8.11133 8.59555 7.63667C8.23956 7.16201 8.0323 6.59245 8 6C7.9677 6.59245 7.76045 7.16201 7.40445 7.63667C7.04845 8.11133 6.5597 8.46977 6 8.66667" stroke="#2EB88A" stroke-width="1.33333" stroke-linecap="round" stroke-linejoin="round"/>
<path d="M11.7327 4.33341C11.894 4.0538 11.9853 3.73929 11.9987 3.41675" stroke="#2EB88A" stroke-width="1.33333" stroke-linecap="round" stroke-linejoin="round"/>
<path d="M4.00195 3.41675C4.01514 3.73924 4.10617 4.05374 4.26729 4.33341" stroke="#2EB88A" stroke-width="1.33333" stroke-linecap="round" stroke-linejoin="round"/>
<path d="M2.31812 7.264C2.44007 7.16467 2.57058 7.07633 2.70812 7" stroke="#2EB88A" stroke-width="1.33333" stroke-linecap="round" stroke-linejoin="round"/>
<path d="M13.292 7C13.4295 7.07633 13.56 7.16467 13.682 7.264" stroke="#2EB88A" stroke-width="1.33333" stroke-linecap="round" stroke-linejoin="round"/>
<path d="M4.00005 12C3.54061 12.0002 3.0889 11.8817 2.68872 11.656" stroke="#2EB88A" stroke-width="1.33333" stroke-linecap="round" stroke-linejoin="round"/>
<path d="M13.3113 11.656C12.9112 11.8817 12.4594 12.0002 12 12" stroke="#2EB88A" stroke-width="1.33333" stroke-linecap="round" stroke-linejoin="round"/>
</svg>
