<svg width="104" height="104" viewBox="0 0 104 104" fill="none" xmlns="http://www.w3.org/2000/svg">
<g filter="url(#filter0_d_241_136)">
<rect x="20" y="16" width="64" height="64" rx="32" fill="url(#paint0_linear_241_136)" shape-rendering="crispEdges"/>
<path d="M51.9563 57.2386C50.6836 57.2386 49.5501 57.0199 48.5558 56.5824C47.5671 56.1392 46.7859 55.5312 46.212 54.7585C45.6438 53.9801 45.3512 53.0824 45.3342 52.0653H49.0501C49.0728 52.4915 49.212 52.8665 49.4677 53.1903C49.729 53.5085 50.0756 53.7557 50.5075 53.9318C50.9393 54.108 51.4251 54.196 51.9648 54.196C52.5273 54.196 53.0245 54.0966 53.4563 53.8977C53.8881 53.6989 54.2262 53.4233 54.4705 53.071C54.7148 52.7187 54.837 52.3125 54.837 51.8523C54.837 51.3864 54.7063 50.9744 54.445 50.6165C54.1893 50.2528 53.82 49.9687 53.337 49.7642C52.8597 49.5597 52.2915 49.4574 51.6325 49.4574H50.0046V46.7472H51.6325C52.1893 46.7472 52.6808 46.6506 53.1069 46.4574C53.5387 46.2642 53.8739 45.9972 54.1126 45.6562C54.3512 45.3097 54.4705 44.9062 54.4705 44.446C54.4705 44.0085 54.3654 43.625 54.1552 43.2955C53.9506 42.9602 53.6609 42.6989 53.2859 42.5114C52.9165 42.3239 52.4847 42.2301 51.9904 42.2301C51.4904 42.2301 51.033 42.321 50.6183 42.5028C50.2035 42.679 49.8711 42.9318 49.6211 43.2614C49.3711 43.5909 49.2376 43.9773 49.2205 44.4205H45.6836C45.7006 43.4148 45.9876 42.5284 46.5444 41.7614C47.1012 40.9943 47.8512 40.3949 48.7944 39.9631C49.7433 39.5256 50.8143 39.3068 52.0075 39.3068C53.212 39.3068 54.266 39.5256 55.1694 39.9631C56.0728 40.4006 56.7745 40.9915 57.2745 41.7358C57.7802 42.4744 58.0302 43.304 58.0245 44.2244C58.0302 45.2017 57.7262 46.017 57.1126 46.6705C56.5046 47.3239 55.712 47.7386 54.7347 47.9148V48.0511C56.0188 48.2159 56.9961 48.6619 57.6665 49.3892C58.3427 50.1108 58.6779 51.0142 58.6722 52.0994C58.6779 53.0938 58.391 53.9773 57.8114 54.75C57.2376 55.5227 56.445 56.1307 55.4336 56.5739C54.4222 57.017 53.2631 57.2386 51.9563 57.2386Z" fill="#F9FBFA"/>
</g>
<defs>
<filter id="filter0_d_241_136" x="0" y="0" width="104" height="104" filterUnits="userSpaceOnUse" color-interpolation-filters="sRGB">
<feFlood flood-opacity="0" result="BackgroundImageFix"/>
<feColorMatrix in="SourceAlpha" type="matrix" values="0 0 0 0 0 0 0 0 0 0 0 0 0 0 0 0 0 0 127 0" result="hardAlpha"/>
<feOffset dy="4"/>
<feGaussianBlur stdDeviation="10"/>
<feComposite in2="hardAlpha" operator="out"/>
<feColorMatrix type="matrix" values="0 0 0 0 0.760784 0 0 0 0 0.839216 0 0 0 0 0.811765 0 0 0 0.3 0"/>
<feBlend mode="normal" in2="BackgroundImageFix" result="effect1_dropShadow_241_136"/>
<feBlend mode="normal" in="SourceGraphic" in2="effect1_dropShadow_241_136" result="shape"/>
</filter>
<linearGradient id="paint0_linear_241_136" x1="39.6364" y1="5.6" x2="-7.74079" y2="74.9908" gradientUnits="userSpaceOnUse">
<stop offset="0.153846" stop-color="#3C886B"/>
<stop offset="1" stop-color="#9AF6D3"/>
</linearGradient>
</defs>
</svg>
