<svg width="104" height="104" viewBox="0 0 104 104" fill="none" xmlns="http://www.w3.org/2000/svg">
<g filter="url(#filter0_d_241_131)">
<rect x="20" y="16" width="64" height="64" rx="32" fill="url(#paint0_linear_241_131)" shape-rendering="crispEdges"/>
<path d="M45.8562 57V54.3409L52.0692 48.5881C52.5977 48.0767 53.0408 47.6165 53.3988 47.2074C53.7624 46.7983 54.038 46.3977 54.2255 46.0057C54.413 45.608 54.5067 45.179 54.5067 44.7188C54.5067 44.2074 54.3903 43.767 54.1573 43.3977C53.9244 43.0227 53.6062 42.7358 53.2028 42.5369C52.7994 42.3324 52.342 42.2301 51.8306 42.2301C51.2965 42.2301 50.8306 42.3381 50.4329 42.554C50.0352 42.7699 49.7283 43.0795 49.5124 43.483C49.2965 43.8864 49.1886 44.3665 49.1886 44.9233H45.6857C45.6857 43.7812 45.9442 42.7898 46.4613 41.9489C46.9783 41.108 47.7028 40.4574 48.6346 39.9972C49.5664 39.5369 50.6403 39.3068 51.8562 39.3068C53.1062 39.3068 54.1942 39.5284 55.1204 39.9716C56.0522 40.4091 56.7766 41.017 57.2937 41.7955C57.8107 42.5739 58.0692 43.4659 58.0692 44.4716C58.0692 45.1307 57.9386 45.7812 57.6772 46.4233C57.4215 47.0653 56.9641 47.7784 56.305 48.5625C55.646 49.3409 54.717 50.2756 53.5181 51.3665L50.9698 53.8636V53.983H58.2994V57H45.8562Z" fill="#F9FBFA"/>
</g>
<defs>
<filter id="filter0_d_241_131" x="0" y="0" width="104" height="104" filterUnits="userSpaceOnUse" color-interpolation-filters="sRGB">
<feFlood flood-opacity="0" result="BackgroundImageFix"/>
<feColorMatrix in="SourceAlpha" type="matrix" values="0 0 0 0 0 0 0 0 0 0 0 0 0 0 0 0 0 0 127 0" result="hardAlpha"/>
<feOffset dy="4"/>
<feGaussianBlur stdDeviation="10"/>
<feComposite in2="hardAlpha" operator="out"/>
<feColorMatrix type="matrix" values="0 0 0 0 0.760784 0 0 0 0 0.839216 0 0 0 0 0.811765 0 0 0 0.3 0"/>
<feBlend mode="normal" in2="BackgroundImageFix" result="effect1_dropShadow_241_131"/>
<feBlend mode="normal" in="SourceGraphic" in2="effect1_dropShadow_241_131" result="shape"/>
</filter>
<linearGradient id="paint0_linear_241_131" x1="39.6364" y1="5.6" x2="-7.74079" y2="74.9908" gradientUnits="userSpaceOnUse">
<stop offset="0.153846" stop-color="#3C886B"/>
<stop offset="1" stop-color="#9AF6D3"/>
</linearGradient>
</defs>
</svg>
