<svg width="45" height="45" viewBox="0 0 45 45" fill="none" xmlns="http://www.w3.org/2000/svg">
<rect x="2" y="2" width="40.5506" height="40.5506" rx="20.2753" stroke="#EFEBE7" stroke-width="4"/>
<mask id="path-2-inside-1_241_169" fill="white">
<path d="M0.0509033 22.5146C0.0509033 10.2122 10.0239 0.239258 22.3262 0.239258C34.6285 0.239258 44.6015 10.2122 44.6015 22.5146C44.6015 34.8169 34.6285 44.7898 22.3262 44.7898C10.0239 44.7898 0.0509033 34.8169 0.0509033 22.5146Z"/>
</mask>
<g clip-path="url(#paint0_diamond_241_169_clip_path)" data-figma-skip-parse="true" mask="url(#path-2-inside-1_241_169)"><g transform="matrix(0.0222753 0 0 0.0222753 44.6015 22.5146)"><rect x="0" y="0" width="2179.57" height="1179.57" fill="url(#paint0_diamond_241_169)" opacity="1" shape-rendering="crispEdges"/><rect x="0" y="0" width="2179.57" height="1179.57" transform="scale(1 -1)" fill="url(#paint0_diamond_241_169)" opacity="1" shape-rendering="crispEdges"/><rect x="0" y="0" width="2179.57" height="1179.57" transform="scale(-1 1)" fill="url(#paint0_diamond_241_169)" opacity="1" shape-rendering="crispEdges"/><rect x="0" y="0" width="2179.57" height="1179.57" transform="scale(-1)" fill="url(#paint0_diamond_241_169)" opacity="1" shape-rendering="crispEdges"/></g></g><path d="M22.3262 44.7898V40.7898C12.233 40.7898 4.0509 32.6077 4.0509 22.5146H0.0509033H-3.9491C-3.9491 37.026 7.81476 48.7898 22.3262 48.7898V44.7898ZM44.6015 22.5146H40.6015C40.6015 32.6077 32.4194 40.7898 22.3262 40.7898V44.7898V48.7898C36.8376 48.7898 48.6015 37.026 48.6015 22.5146H44.6015ZM22.3262 0.239258V4.23926C32.4194 4.23926 40.6015 12.4214 40.6015 22.5146H44.6015H48.6015C48.6015 8.00311 36.8376 -3.76074 22.3262 -3.76074V0.239258ZM22.3262 0.239258V-3.76074C7.81476 -3.76074 -3.9491 8.00311 -3.9491 22.5146H0.0509033H4.0509C4.0509 12.4214 12.233 4.23926 22.3262 4.23926V0.239258Z" data-figma-gradient-fill="{&#34;type&#34;:&#34;GRADIENT_DIAMOND&#34;,&#34;stops&#34;:[{&#34;color&#34;:{&#34;r&#34;:0.0,&#34;g&#34;:0.0,&#34;b&#34;:0.0,&#34;a&#34;:0.0},&#34;position&#34;:0.99999988079071045},{&#34;color&#34;:{&#34;r&#34;:0.18039216101169586,&#34;g&#34;:0.72156864404678345,&#34;b&#34;:0.54117649793624878,&#34;a&#34;:1.0},&#34;position&#34;:1.0}],&#34;stopsVar&#34;:[{&#34;color&#34;:{&#34;r&#34;:0.0,&#34;g&#34;:0.0,&#34;b&#34;:0.0,&#34;a&#34;:0.0},&#34;position&#34;:0.99999988079071045},{&#34;color&#34;:{&#34;r&#34;:0.18039216101169586,&#34;g&#34;:0.72156864404678345,&#34;b&#34;:0.54117649793624878,&#34;a&#34;:1.0},&#34;position&#34;:1.0}],&#34;transform&#34;:{&#34;m00&#34;:44.550586700439453,&#34;m01&#34;:0.0,&#34;m02&#34;:22.326196670532227,&#34;m10&#34;:0.0,&#34;m11&#34;:44.550586700439453,&#34;m12&#34;:0.23925781250},&#34;opacity&#34;:1.0,&#34;blendMode&#34;:&#34;NORMAL&#34;,&#34;visible&#34;:true}" mask="url(#path-2-inside-1_241_169)"/>
<path d="M14.4762 26.634C13.8398 26.634 13.2731 26.5246 12.7759 26.3058C12.2816 26.0843 11.891 25.7803 11.604 25.3939C11.32 25.0047 11.1737 24.5558 11.1651 24.0473H13.0231C13.0344 24.2604 13.104 24.4479 13.2319 24.6098C13.3626 24.7689 13.5359 24.8925 13.7518 24.9806C13.9677 25.0686 14.2106 25.1127 14.4805 25.1127C14.7617 25.1127 15.0103 25.0629 15.2262 24.9635C15.4421 24.8641 15.6112 24.7263 15.7333 24.5502C15.8555 24.374 15.9165 24.1709 15.9165 23.9408C15.9165 23.7078 15.8512 23.5019 15.7205 23.3229C15.5927 23.1411 15.408 22.999 15.1665 22.8968C14.9279 22.7945 14.6438 22.7433 14.3143 22.7433H13.5004V21.3882H14.3143C14.5927 21.3882 14.8384 21.3399 15.0515 21.2433C15.2674 21.1468 15.435 21.0132 15.5543 20.8428C15.6737 20.6695 15.7333 20.4678 15.7333 20.2377C15.7333 20.0189 15.6808 19.8271 15.5756 19.6624C15.4734 19.4948 15.3285 19.3641 15.141 19.2703C14.9563 19.1766 14.7404 19.1297 14.4933 19.1297C14.2433 19.1297 14.0146 19.1752 13.8072 19.2661C13.5998 19.3541 13.4336 19.4806 13.3086 19.6453C13.1836 19.8101 13.1168 20.0033 13.1083 20.2249H11.3398C11.3484 19.722 11.4918 19.2789 11.7702 18.8953C12.0487 18.5118 12.4237 18.2121 12.8952 17.9962C13.3697 17.7774 13.9052 17.6681 14.5018 17.6681C15.104 17.6681 15.631 17.7774 16.0827 17.9962C16.5344 18.2149 16.8853 18.5104 17.1353 18.8825C17.3881 19.2519 17.5131 19.6666 17.5103 20.1269C17.5131 20.6155 17.3612 21.0232 17.0543 21.3499C16.7504 21.6766 16.354 21.884 15.8654 21.972V22.0402C16.5075 22.1226 16.9961 22.3456 17.3313 22.7093C17.6694 23.07 17.837 23.5218 17.8342 24.0644C17.837 24.5615 17.6935 25.0033 17.4038 25.3896C17.1168 25.776 16.7205 26.08 16.2148 26.3016C15.7092 26.5232 15.1296 26.634 14.4762 26.634ZM22.5099 26.634C22.0611 26.6311 21.6278 26.5558 21.2102 26.4081C20.7955 26.2604 20.4233 26.0203 20.0938 25.6879C19.7642 25.3556 19.5028 24.9152 19.3097 24.3669C19.1193 23.8186 19.0241 23.1453 19.0241 22.347C19.027 21.6141 19.1108 20.9593 19.2756 20.3825C19.4432 19.803 19.6818 19.3115 19.9915 18.9081C20.304 18.5047 20.6776 18.1979 21.1122 17.9877C21.5469 17.7746 22.0341 17.6681 22.5739 17.6681C23.1563 17.6681 23.6705 17.7817 24.1165 18.009C24.5625 18.2334 24.9205 18.5388 25.1903 18.9252C25.4631 19.3115 25.6278 19.7448 25.6847 20.2249H23.8651C23.794 19.9209 23.6449 19.6823 23.4176 19.509C23.1903 19.3357 22.9091 19.249 22.5739 19.249C22.0057 19.249 21.5739 19.4962 21.2784 19.9905C20.9858 20.4848 20.8366 21.1567 20.831 22.0061H20.8906C21.0213 21.7476 21.1974 21.5274 21.419 21.3456C21.6435 21.161 21.8977 21.0203 22.1818 20.9237C22.4688 20.8243 22.7713 20.7746 23.0895 20.7746C23.6065 20.7746 24.0668 20.8968 24.4702 21.1411C24.8736 21.3825 25.1918 21.7149 25.4247 22.1382C25.6577 22.5615 25.7741 23.0459 25.7741 23.5914C25.7741 24.1823 25.6364 24.7078 25.3608 25.1681C25.0881 25.6283 24.706 25.9891 24.2145 26.2504C23.7259 26.509 23.1577 26.6368 22.5099 26.634ZM22.5014 25.1851C22.7855 25.1851 23.0398 25.1169 23.2642 24.9806C23.4886 24.8442 23.6648 24.6595 23.7926 24.4266C23.9205 24.1936 23.9844 23.9323 23.9844 23.6425C23.9844 23.3527 23.9205 23.0928 23.7926 22.8627C23.6676 22.6325 23.4943 22.4493 23.2727 22.3129C23.0511 22.1766 22.7983 22.1084 22.5142 22.1084C22.3011 22.1084 22.1037 22.1482 21.9219 22.2277C21.7429 22.3073 21.5852 22.4181 21.4489 22.5601C21.3153 22.7021 21.2102 22.8669 21.1335 23.0544C21.0568 23.2391 21.0185 23.4365 21.0185 23.6468C21.0185 23.928 21.0824 24.1851 21.2102 24.4181C21.3409 24.651 21.517 24.8371 21.7386 24.9763C21.9631 25.1155 22.2173 25.1851 22.5014 25.1851ZM30.2699 26.634C29.6676 26.634 29.1307 26.5232 28.6591 26.3016C28.1903 26.08 27.8182 25.7746 27.5426 25.3854C27.267 24.9962 27.1236 24.5502 27.1122 24.0473H28.902C28.9219 24.3854 29.0639 24.6595 29.3281 24.8698C29.5923 25.08 29.9062 25.1851 30.2699 25.1851C30.5597 25.1851 30.8153 25.1212 31.0369 24.9933C31.2614 24.8627 31.4361 24.6823 31.5611 24.4521C31.6889 24.2192 31.7528 23.9521 31.7528 23.651C31.7528 23.3442 31.6875 23.0743 31.5568 22.8414C31.429 22.6084 31.2514 22.4266 31.0241 22.2959C30.7969 22.1652 30.5369 22.0985 30.2443 22.0956C29.9886 22.0956 29.7401 22.1482 29.4986 22.2533C29.2599 22.3584 29.0739 22.5019 28.9403 22.6837L27.2997 22.3896L27.7131 17.7874H33.0483V19.2959H29.2344L29.0085 21.482H29.0597C29.2131 21.2661 29.4446 21.0871 29.7543 20.945C30.0639 20.803 30.4105 20.732 30.794 20.732C31.3196 20.732 31.7884 20.8556 32.2003 21.1027C32.6122 21.3499 32.9375 21.6894 33.1761 22.1212C33.4148 22.5502 33.5327 23.0445 33.5298 23.6041C33.5327 24.1922 33.3963 24.7149 33.1207 25.1723C32.848 25.6269 32.4659 25.9848 31.9744 26.2462C31.4858 26.5047 30.9176 26.634 30.2699 26.634Z" fill="url(#paint1_linear_241_169)"/>
<defs>
<clipPath id="paint0_diamond_241_169_clip_path"><path d="M22.3262 44.7898V40.7898C12.233 40.7898 4.0509 32.6077 4.0509 22.5146H0.0509033H-3.9491C-3.9491 37.026 7.81476 48.7898 22.3262 48.7898V44.7898ZM44.6015 22.5146H40.6015C40.6015 32.6077 32.4194 40.7898 22.3262 40.7898V44.7898V48.7898C36.8376 48.7898 48.6015 37.026 48.6015 22.5146H44.6015ZM22.3262 0.239258V4.23926C32.4194 4.23926 40.6015 12.4214 40.6015 22.5146H44.6015H48.6015C48.6015 8.00311 36.8376 -3.76074 22.3262 -3.76074V0.239258ZM22.3262 0.239258V-3.76074C7.81476 -3.76074 -3.9491 8.00311 -3.9491 22.5146H0.0509033H4.0509C4.0509 12.4214 12.233 4.23926 22.3262 4.23926V0.239258Z" mask="url(#path-2-inside-1_241_169)"/></clipPath><linearGradient id="paint0_diamond_241_169" x1="0" y1="0" x2="500" y2="500" gradientUnits="userSpaceOnUse">
<stop offset="1" stop-opacity="0"/>
<stop offset="1" stop-color="#2EB88A"/>
</linearGradient>
<linearGradient id="paint1_linear_241_169" x1="17.6898" y1="3.96465" x2="-4.00179" y2="31.1965" gradientUnits="userSpaceOnUse">
<stop offset="0.153846" stop-color="#3C886B"/>
<stop offset="1" stop-color="#9AF6D3"/>
</linearGradient>
</defs>
</svg>
