<svg width="34" height="47" viewBox="0 0 34 47" fill="none" xmlns="http://www.w3.org/2000/svg">
<path d="M15.1479 0.245736C15.5388 0.234081 15.8061 0.280204 16.1355 0.527467C16.2761 0.630536 16.5017 0.945143 16.5283 1.11619C17.0885 4.73458 18.6157 7.76119 20.64 10.8557C21.5511 12.2447 22.517 13.5967 23.536 14.9086C24.0286 15.5494 24.5784 16.1674 25.0435 16.8239C25.8323 17.9375 24.3784 19.2738 23.366 18.307C22.9703 17.929 22.6 17.4121 22.2536 16.9781C20.2842 14.5438 18.5193 11.9506 16.9775 9.22519C16.6066 8.54757 16.2587 7.85757 15.9345 7.15637C15.8228 6.9177 15.5368 6.19333 15.3823 6.04693C15.283 6.08695 14.862 7.21295 14.7788 7.40685C14.4814 8.08897 14.1584 8.75965 13.8106 9.41746C13.1063 10.7423 12.3433 12.0352 11.5241 13.2922C7.39549 19.535 0.952455 26.5992 3.18791 34.6795C4.12252 38.0131 6.35263 40.834 9.38069 42.5125C12.3369 44.1696 16.0705 44.5601 19.3222 43.6304C22.7237 42.6607 25.5938 40.3659 27.2873 37.2604C27.2985 37.2389 27.3094 37.217 27.3203 37.1955C29.1111 33.6057 29.2686 29.601 27.6251 25.9301C27.0495 24.5478 29.1549 23.663 29.7353 24.9875C31.645 29.3453 31.4705 34.7043 29.0635 38.8168C26.9954 42.3695 23.5931 44.9479 19.614 45.979C15.6647 47.0184 11.4644 46.4452 7.9381 44.3859C4.4671 42.3471 1.94917 39.0117 0.939156 35.1149C-2.37233 22.3322 11.6744 13.9658 13.9189 2.42869C14.105 1.4719 13.8977 0.52264 15.1479 0.245736Z" fill="#3C886B"/>
<path d="M32.3085 16.1603C32.4721 16.1358 32.7702 16.1974 32.7343 16.3657C32.6055 16.9685 31.4123 18.0359 31.0191 18.4303C30.3691 19.0756 29.7333 19.7354 29.1128 20.4092C25.5309 24.2374 22.9124 27.8672 20.0376 32.2362C19.2382 33.4687 18.4607 34.7153 17.7058 35.9755C17.2747 36.6846 16.8512 37.3903 16.4055 38.0926C15.9829 38.7591 15.2727 39.1143 14.4879 39.0777C13.2648 39.0207 12.3537 37.5737 11.5822 36.7044C10.4012 35.3691 9.21319 34.0396 8.01812 32.7169C7.35818 32.0008 6.0063 30.7556 5.83672 29.8045C5.50755 27.9579 7.95345 26.0342 9.64157 27.0743C10.1615 27.3946 10.7776 28.052 11.2292 28.4917L13.3777 30.5971C13.5101 30.7277 14.345 31.6533 14.4927 31.4753C18.8475 26.2286 23.5025 20.9247 29.4242 17.4009C30.2672 16.8993 31.3502 16.3444 32.3085 16.1603Z" fill="#3C886B"/>
<path d="M26.3337 31.1034C27.4493 31.1724 27.214 32.1776 27.101 32.9599C26.8546 34.6671 26.1579 36.4711 25.1387 37.8704C23.5939 39.9916 20.8127 41.9063 18.2074 42.3103C18.0376 42.3201 17.8927 42.3092 17.7456 42.2146C17.544 42.0842 17.4044 41.877 17.3598 41.6408C17.2221 40.9261 17.8149 40.6206 18.3865 40.4776C19.711 40.147 21.0635 39.4239 22.1051 38.5422C23.8433 37.0862 25.0008 35.0546 25.3673 32.8173C25.5069 32.0083 25.2813 31.2745 26.3337 31.1034Z" fill="#3C886B"/>
<path d="M10.7613 17.6854C11.3594 17.6734 12.0622 18.2411 11.7103 18.8232C11.1877 19.6878 10.5652 20.5119 10.0312 21.3779C9.72693 21.8808 9.43201 22.3892 9.1466 22.9029C8.84475 23.4535 8.65516 24.0673 8.04838 24.3082C7.78958 24.3248 7.62427 24.3111 7.39708 24.1811C6.61417 23.737 7.14931 22.8527 7.47909 22.2572C8.30027 20.7744 9.23087 19.2443 10.2934 17.9181C10.3887 17.7992 10.6215 17.7228 10.7613 17.6854Z" fill="#3C886B"/>
</svg>
