<svg width="48" height="48" viewBox="0 0 48 48" fill="none" xmlns="http://www.w3.org/2000/svg">
<rect width="48" height="48" rx="12" fill="url(#paint0_linear_241_178)"/>
<path d="M19.2167 33.3333C21.4434 34.4756 24.0048 34.785 26.4394 34.2058C28.874 33.6265 31.0217 32.1968 32.4954 30.1742C33.9692 28.1516 34.672 25.6692 34.4774 23.1742C34.2827 20.6792 33.2034 18.3358 31.4338 16.5662C29.6642 14.7967 27.3208 13.7173 24.8259 13.5227C22.3309 13.328 19.8484 14.0309 17.8258 15.5046C15.8032 16.9784 14.3735 19.126 13.7943 21.5606C13.2151 23.9952 13.5245 26.5567 14.6667 28.7833L12.3334 35.6667L19.2167 33.3333Z" stroke="white" stroke-width="2.66667" stroke-linecap="round" stroke-linejoin="round"/>
<defs>
<linearGradient id="paint0_linear_241_178" x1="14.7273" y1="-7.8" x2="-20.8056" y2="44.2431" gradientUnits="userSpaceOnUse">
<stop offset="0.153846" stop-color="#3C886B"/>
<stop offset="1" stop-color="#9AF6D3"/>
</linearGradient>
</defs>
</svg>
