<svg width="48" height="48" viewBox="0 0 48 48" fill="none" xmlns="http://www.w3.org/2000/svg">
<rect width="48" height="48" rx="12" fill="url(#paint0_linear_285_4368)"/>
<path d="M32.1667 18.1667V14.6667C32.1667 14.3572 32.0438 14.0605 31.825 13.8417C31.6062 13.6229 31.3094 13.5 31 13.5H15.8333C15.2145 13.5 14.621 13.7458 14.1834 14.1834C13.7458 14.621 13.5 15.2145 13.5 15.8333C13.5 16.4522 13.7458 17.0457 14.1834 17.4832C14.621 17.9208 15.2145 18.1667 15.8333 18.1667H33.3333C33.6428 18.1667 33.9395 18.2896 34.1583 18.5084C34.3771 18.7272 34.5 19.0239 34.5 19.3333V24M34.5 24H31C30.3812 24 29.7877 24.2458 29.3501 24.6834C28.9125 25.121 28.6667 25.7145 28.6667 26.3333C28.6667 26.9522 28.9125 27.5457 29.3501 27.9832C29.7877 28.4208 30.3812 28.6667 31 28.6667H34.5C34.8094 28.6667 35.1062 28.5438 35.325 28.325C35.5438 28.1062 35.6667 27.8094 35.6667 27.5V25.1667C35.6667 24.8572 35.5438 24.5605 35.325 24.3417C35.1062 24.1229 34.8094 24 34.5 24Z" stroke="white" stroke-width="2.66667" stroke-linecap="round" stroke-linejoin="round"/>
<path d="M13.5 15.8333V32.1666C13.5 32.7854 13.7458 33.3789 14.1834 33.8165C14.621 34.2541 15.2145 34.4999 15.8333 34.4999H33.3333C33.6428 34.4999 33.9395 34.377 34.1583 34.1582C34.3771 33.9394 34.5 33.6427 34.5 33.3333V28.6666" stroke="white" stroke-width="2.66667" stroke-linecap="round" stroke-linejoin="round"/>
<defs>
<linearGradient id="paint0_linear_285_4368" x1="14.7273" y1="-7.8" x2="-20.8056" y2="44.2431" gradientUnits="userSpaceOnUse">
<stop offset="0.153846" stop-color="#3C886B"/>
<stop offset="1" stop-color="#9AF6D3"/>
</linearGradient>
</defs>
</svg>
