<svg width="81" height="63" viewBox="0 0 81 63" fill="none" xmlns="http://www.w3.org/2000/svg">
<path d="M39.0896 0.000481627C39.4806 -0.00565009 39.7473 0.0442452 40.0731 0.296136C40.2122 0.401181 40.4333 0.718943 40.4575 0.890351C40.9666 4.5163 42.4508 7.56418 44.4312 10.6869C45.3226 12.0887 46.2693 13.4543 47.2697 14.7804C47.7532 15.428 48.2942 16.0538 48.75 16.7168C49.523 17.8414 48.0503 19.157 47.0517 18.1761C46.6614 17.7925 46.2984 17.2704 45.9582 16.8316C44.0234 14.3697 42.2953 11.7518 40.7921 9.00488C40.4309 8.32209 40.0928 7.62725 39.7785 6.92154C39.6702 6.68132 39.3945 5.95297 39.242 5.80441C39.1422 5.84302 38.7052 6.96296 38.6194 7.15567C38.3124 7.83352 37.98 8.49956 37.6228 9.1524C36.8999 10.4672 36.1187 11.7492 35.2818 12.9945C31.0654 19.1783 24.5233 26.1508 26.6443 34.2618C27.5318 37.6083 29.7218 40.4605 32.7258 42.1816C35.6584 43.8802 39.386 44.3234 42.6506 43.4398C46.0654 42.5183 48.9676 40.2643 50.7048 37.183C50.7164 37.1616 50.7276 37.1399 50.7388 37.1185C52.5801 33.5544 52.7942 29.5523 51.2027 25.8586C50.6467 24.4683 52.7644 23.6133 53.3261 24.9458C55.174 29.3302 54.9238 34.6861 52.4589 38.7643C50.3408 42.2874 46.9025 44.8175 42.9091 45.7923C38.9456 46.7758 34.7538 46.1433 31.2569 44.0344C27.8151 41.9468 25.3445 38.5761 24.3897 34.6655C21.2591 21.8372 35.4226 13.6701 37.8298 2.16585C38.0295 1.21179 37.8356 0.259695 39.0896 0.000481627Z" fill="#3C886B"/>
<path d="M56.0237 16.1559C56.1877 16.1337 56.4848 16.1995 56.4466 16.3672C56.3093 16.9682 55.1012 18.0187 54.7024 18.4074C54.0434 19.0435 53.3983 19.6942 52.7683 20.3592C49.1327 24.1364 46.4632 27.7289 43.527 32.0569C42.7102 33.2779 41.9152 34.5134 41.1426 35.7629C40.7015 36.4657 40.268 37.1654 39.8125 37.8613C39.3805 38.5218 38.6654 38.8669 37.8812 38.8193C36.659 38.745 35.7684 37.2853 35.0093 36.4051C33.8473 35.0533 32.6782 33.7072 31.5019 32.3676C30.8521 31.6424 29.518 30.3782 29.3619 29.4248C29.0588 27.5737 31.5316 25.6848 33.2049 26.7485C33.7202 27.0762 34.327 27.7422 34.7723 28.1883L36.8909 30.3239C37.0214 30.4563 37.8431 31.3936 37.9933 31.2177C42.4218 26.0331 47.1513 20.7954 53.1222 17.3556C53.9722 16.866 55.063 16.3264 56.0237 16.1559Z" fill="#3C886B"/>
<path d="M49.8384 31.0131C50.9529 31.0979 50.7035 32.0996 50.5794 32.8803C50.3089 34.5838 49.5868 36.3778 48.5479 37.7625C46.9733 39.8617 44.1653 41.7369 41.5546 42.1041C41.3847 42.1115 41.24 42.0985 41.0942 42.0018C40.8945 41.8687 40.7578 41.6595 40.7165 41.4226C40.5889 40.7061 41.186 40.409 41.7596 40.2741C43.0886 39.9622 44.4512 39.2583 45.5052 38.3915C47.2638 36.9601 48.4498 34.9451 48.8478 32.7131C48.9989 31.9062 48.7837 31.1693 49.8384 31.0131Z" fill="#3C886B"/>
<path d="M34.4572 17.3765C35.0553 17.3729 35.7501 17.9504 35.39 18.5276C34.8552 19.3846 34.2211 20.1999 33.6749 21.0583C33.3636 21.5568 33.0615 22.061 32.7689 22.5706C32.4593 23.1169 32.261 23.728 31.6509 23.9603C31.3919 23.9732 31.2268 23.9571 31.0015 23.824C30.2249 23.3688 30.7725 22.4922 31.1106 21.9014C31.9527 20.4304 32.9048 18.9136 33.986 17.6025C34.083 17.4849 34.3168 17.4118 34.4572 17.3765Z" fill="#3C886B"/>
<path d="M0.916292 49.3998C0.669808 49.3998 0.455474 49.3087 0.27329 49.1265C0.0911063 48.9444 1.43516e-05 48.73 1.43516e-05 48.4835V48.0495C1.43516e-05 47.803 0.0911063 47.5887 0.27329 47.4065C0.455474 47.2243 0.669808 47.1332 0.916292 47.1332H8.08576C8.33224 47.1332 8.54658 47.2243 8.72876 47.4065C8.91095 47.5887 9.00204 47.803 9.00204 48.0495V48.4835C9.00204 48.73 8.91095 48.9444 8.72876 49.1265C8.54658 49.3087 8.33224 49.3998 8.08576 49.3998H6.02816C5.94242 49.3998 5.89955 49.4427 5.89955 49.5284V57.9517C5.89955 58.1982 5.80846 58.4126 5.62628 58.5947C5.44409 58.7769 5.22976 58.868 4.98328 58.868H4.01877C3.77229 58.868 3.55796 58.7769 3.37577 58.5947C3.19359 58.4126 3.1025 58.1982 3.1025 57.9517V49.5284C3.1025 49.4427 3.05963 49.3998 2.9739 49.3998H0.916292ZM11.1449 58.868C10.8984 58.868 10.6841 58.7769 10.5019 58.5947C10.3304 58.4126 10.2447 58.1982 10.2447 57.9517V51.4253C10.2447 51.1788 10.3304 50.9644 10.5019 50.7823C10.6841 50.6001 10.8984 50.509 11.1449 50.509H11.9326C12.1791 50.509 12.3881 50.6001 12.5595 50.7823C12.7417 50.9644 12.8328 51.1788 12.8328 51.4253V52.1004C12.8328 52.1111 12.8382 52.1165 12.8489 52.1165C12.8703 52.1165 12.881 52.1111 12.881 52.1004C13.5455 51.2109 14.4724 50.6912 15.662 50.5411C15.9085 50.509 16.1175 50.584 16.2889 50.7662C16.4711 50.9484 16.5622 51.1681 16.5622 51.4253V51.5539C16.5622 51.8004 16.4711 52.0147 16.2889 52.1969C16.1175 52.3791 15.9031 52.4809 15.6459 52.5023C14.7779 52.5987 14.1027 52.8988 13.6205 53.4025C13.1489 53.8955 12.9132 54.5385 12.9132 55.3315V57.9517C12.9132 58.1982 12.8221 58.4126 12.6399 58.5947C12.4684 58.7769 12.2595 58.868 12.013 58.868H11.1449ZM21.1256 59.0288C20.1826 59.0288 19.4967 58.7662 19.068 58.2411C18.6501 57.716 18.4411 56.8158 18.4411 55.5405V51.4253C18.4411 51.1788 18.5322 50.9644 18.7144 50.7823C18.8966 50.6001 19.1109 50.509 19.3574 50.509H20.0647C20.3112 50.509 20.5255 50.6001 20.7077 50.7823C20.8899 50.9644 20.981 51.1788 20.981 51.4253V55.3637C20.981 55.9852 21.0613 56.4139 21.2221 56.6497C21.3936 56.8747 21.6829 56.9872 22.0901 56.9872C22.4652 56.9872 22.8082 56.8372 23.1189 56.5371C23.4297 56.2263 23.5851 55.8941 23.5851 55.5405V51.4253C23.5851 51.1788 23.6762 50.9644 23.8584 50.7823C24.0406 50.6001 24.2549 50.509 24.5014 50.509H25.273C25.5195 50.509 25.7338 50.6001 25.916 50.7823C26.0982 50.9644 26.1893 51.1788 26.1893 51.4253V57.9517C26.1893 58.1982 26.0982 58.4126 25.916 58.5947C25.7338 58.7769 25.5195 58.868 25.273 58.868H24.6139C24.3567 58.868 24.137 58.7823 23.9548 58.6108C23.7834 58.4286 23.6923 58.2089 23.6816 57.9517V57.8231C23.6816 57.8124 23.6762 57.8071 23.6655 57.8071L23.6333 57.8392C22.9368 58.6322 22.1009 59.0288 21.1256 59.0288ZM32.0627 52.1004C31.5804 52.1004 31.2161 52.229 30.9696 52.4862C30.7231 52.7327 30.5677 53.1614 30.5034 53.7722C30.5034 53.858 30.5409 53.9008 30.6159 53.9008H33.3326C33.4291 53.9008 33.4773 53.8526 33.4773 53.7561C33.4344 52.6523 32.9629 52.1004 32.0627 52.1004ZM32.4646 59.0288C31.0071 59.0288 29.8818 58.659 29.0888 57.9196C28.3065 57.1801 27.9153 56.1031 27.9153 54.6885C27.9153 53.2846 28.2636 52.2129 28.9602 51.4735C29.6675 50.7233 30.6856 50.3482 32.0145 50.3482C34.565 50.3482 35.8618 51.7414 35.9046 54.5278C35.9046 54.785 35.8028 55.0046 35.5992 55.1868C35.4063 55.3583 35.1812 55.444 34.924 55.444H30.632C30.5248 55.444 30.482 55.4923 30.5034 55.5887C30.5891 56.1781 30.8142 56.6014 31.1786 56.8586C31.5536 57.1051 32.1109 57.2284 32.8504 57.2284C33.3326 57.2284 33.8524 57.1587 34.4096 57.0194C34.6347 56.9658 34.833 57.0087 35.0044 57.148C35.1866 57.2873 35.2777 57.4695 35.2777 57.6945V57.7267C35.2777 57.9946 35.192 58.2411 35.0205 58.4661C34.8597 58.6805 34.6508 58.8091 34.3936 58.8519C33.772 58.9698 33.129 59.0288 32.4646 59.0288ZM45.3804 49.3516V56.6497C45.3804 56.7461 45.4286 56.805 45.525 56.8265C45.7394 56.8693 45.9966 56.8908 46.2966 56.8908C47.379 56.8908 48.1774 56.5746 48.6918 55.9424C49.2169 55.3101 49.4795 54.2759 49.4795 52.8399C49.4795 51.5539 49.2169 50.6108 48.6918 50.0107C48.1667 49.4105 47.3683 49.1105 46.2966 49.1105C45.9966 49.1105 45.7394 49.1319 45.525 49.1748C45.4286 49.1962 45.3804 49.2551 45.3804 49.3516ZM43.6121 58.9002C43.3549 58.8787 43.1406 58.7716 42.9691 58.5787C42.7976 58.375 42.7119 58.1393 42.7119 57.8714V48.1299C42.7119 47.862 42.7976 47.6316 42.9691 47.4387C43.1406 47.235 43.3549 47.1225 43.6121 47.1011C44.448 47.0153 45.2732 46.9725 46.0877 46.9725C48.0059 46.9725 49.4849 47.4815 50.5244 48.4996C51.5639 49.5177 52.0836 50.9644 52.0836 52.8399C52.0836 54.876 51.5639 56.4192 50.5244 57.4695C49.4849 58.509 48.0059 59.0288 46.0877 59.0288C45.2732 59.0288 44.448 58.9859 43.6121 58.9002ZM54.7108 58.868C54.4643 58.868 54.25 58.7769 54.0678 58.5947C53.8963 58.4126 53.8106 58.1982 53.8106 57.9517V51.4253C53.8106 51.1788 53.8963 50.9644 54.0678 50.7823C54.25 50.6001 54.4643 50.509 54.7108 50.509H55.4985C55.7449 50.509 55.9539 50.6001 56.1254 50.7823C56.3076 50.9644 56.3987 51.1788 56.3987 51.4253V52.1004C56.3987 52.1111 56.404 52.1165 56.4147 52.1165C56.4362 52.1165 56.4469 52.1111 56.4469 52.1004C57.1113 51.2109 58.0383 50.6912 59.2279 50.5411C59.4744 50.509 59.6833 50.584 59.8548 50.7662C60.037 50.9484 60.1281 51.1681 60.1281 51.4253V51.5539C60.1281 51.8004 60.037 52.0147 59.8548 52.1969C59.6833 52.3791 59.469 52.4809 59.2118 52.5023C58.3437 52.5987 57.6686 52.8988 57.1863 53.4025C56.7148 53.8955 56.479 54.5385 56.479 55.3315V57.9517C56.479 58.1982 56.388 58.4126 56.2058 58.5947C56.0343 58.7769 55.8253 58.868 55.5788 58.868H54.7108ZM66.612 52.7595C66.3548 52.363 65.9583 52.1647 65.4224 52.1647C64.8866 52.1647 64.4847 52.363 64.2168 52.7595C63.9596 53.156 63.831 53.799 63.831 54.6885C63.831 55.578 63.9596 56.221 64.2168 56.6175C64.4847 57.014 64.8866 57.2123 65.4224 57.2123C65.9583 57.2123 66.3548 57.014 66.612 56.6175C66.8799 56.221 67.0138 55.578 67.0138 54.6885C67.0138 53.799 66.8799 53.156 66.612 52.7595ZM68.5249 57.8874C67.7854 58.6483 66.7513 59.0288 65.4224 59.0288C64.0935 59.0288 63.0594 58.6483 62.3199 57.8874C61.5805 57.1265 61.2108 56.0602 61.2108 54.6885C61.2108 53.3168 61.5805 52.2505 62.3199 51.4896C63.0594 50.7287 64.0935 50.3482 65.4224 50.3482C66.7513 50.3482 67.7854 50.7287 68.5249 51.4896C69.2644 52.2505 69.6341 53.3168 69.6341 54.6885C69.6341 56.0602 69.2644 57.1265 68.5249 57.8874ZM73.893 53.6918V55.6852C73.893 56.0388 74.0537 56.3657 74.3752 56.6657C74.7074 56.9551 75.0825 57.0998 75.5005 57.0998C75.9934 57.0998 76.3846 56.9015 76.6739 56.505C76.9633 56.0977 77.108 55.4923 77.108 54.6885C77.108 53.081 76.5721 52.2772 75.5005 52.2772C75.0825 52.2772 74.7074 52.4273 74.3752 52.7273C74.0537 53.0167 73.893 53.3382 73.893 53.6918ZM72.2694 62.4045C72.0229 62.4045 71.8086 62.3134 71.6264 62.1312C71.4442 61.9491 71.3531 61.7347 71.3531 61.4882V51.4253C71.3531 51.1788 71.4442 50.9644 71.6264 50.7823C71.8086 50.6001 72.0229 50.509 72.2694 50.509H72.9124C73.1696 50.509 73.3893 50.6001 73.5715 50.7823C73.7536 50.9537 73.8501 51.1681 73.8608 51.4253V51.5539C73.8608 51.5646 73.8662 51.5699 73.8769 51.5699L73.909 51.5378C74.5949 50.7448 75.4201 50.3482 76.3846 50.3482C77.3812 50.3482 78.1743 50.7233 78.7637 51.4735C79.3638 52.2237 79.6639 53.2953 79.6639 54.6885C79.6639 56.0388 79.3531 57.0998 78.7315 57.8714C78.1207 58.643 77.3384 59.0288 76.3846 59.0288C75.4951 59.0288 74.7021 58.7019 74.0055 58.0482C73.9948 58.0375 73.984 58.0321 73.9733 58.0321C73.9626 58.0321 73.9573 58.0375 73.9573 58.0482V61.4882C73.9573 61.7347 73.8662 61.9491 73.684 62.1312C73.5018 62.3134 73.2875 62.4045 73.041 62.4045H72.2694Z" fill="#3C886B"/>
</svg>
