<svg width="27" height="37" viewBox="0 0 27 37" fill="none" xmlns="http://www.w3.org/2000/svg">
<path d="M11.1611 36.0051C6.52949 35.0065 2.83294 32.038 0.96651 27.8186C-0.41879 24.6848 -0.309855 20.1023 1.26064 15.4126C1.88702 13.5425 3.10891 10.821 3.40304 10.6394C3.51923 10.5668 3.63907 10.9371 3.71714 11.6144C3.79702 12.3043 4.10204 13.2393 4.54686 14.1598C5.15872 15.4217 5.61625 15.9881 8.02736 18.4701C11.0921 21.6237 12.0652 23.1125 12.6172 25.4855C12.9077 26.7383 13.0729 30.3622 12.8496 30.5892C12.7806 30.66 12.2486 30.3096 11.6694 29.8103C11.0903 29.3128 9.87201 28.4468 8.96058 27.8876C6.75644 26.5349 5.63259 25.4891 4.89001 24.1057C4.15288 22.7331 3.91322 23.0907 4.58499 24.5596C5.14964 25.7924 6.45687 27.0941 8.474 28.434C10.4875 29.774 11.2809 30.5674 11.969 31.9291C12.5536 33.0874 12.826 34.086 12.9149 35.395C12.9803 36.3682 12.9295 36.3863 11.1611 36.0051ZM13.9753 35.6946C13.9753 33.9081 14.923 31.5442 16.1177 30.3495C16.4898 29.9773 17.4739 29.193 18.3036 28.6083C21.1033 26.6366 22.563 24.988 22.9425 23.3685C23.1331 22.5624 22.8208 22.793 22.2526 23.8823C21.5209 25.2822 20.5386 26.2299 18.2274 27.775C17.1362 28.503 15.7545 29.5071 15.1554 30.0045L14.066 30.9087L14.0134 29.3182C13.9553 27.5571 14.2839 25.4982 14.8722 23.9314C15.5221 22.2066 16.6405 20.7051 19.1279 18.2195C22.2362 15.113 22.859 14.0691 23.3238 11.1986C23.3927 10.7737 23.5089 10.5595 23.6306 10.6339C23.9229 10.8137 25.1176 13.4699 25.7458 15.3345C26.9277 18.8404 27.2709 21.9142 26.7897 24.6703C26.2396 27.8258 25.1866 29.8085 22.7664 32.2468C21.3611 33.6611 20.8636 34.0297 19.4075 34.736C17.7717 35.5294 16.4263 35.9579 14.7469 36.2175L13.9753 36.3373V35.6946ZM11.0703 20.0188C8.89522 17.6204 8.27247 16.6944 7.59888 14.8516C6.90169 12.9379 6.74192 11.0461 7.14316 9.43383C7.7877 6.84479 10.0281 3.36793 12.7298 0.767993L13.5268 0L15.0991 1.69395C17.739 4.53536 18.9881 6.56882 19.6091 9.03622C20.4279 12.2861 19.7724 15.3 17.6809 17.8927C16.5062 19.3524 14.1659 21.8489 14.0678 21.7508C14.0261 21.7091 13.9044 18.579 13.7991 14.7953C13.6938 11.0116 13.5667 7.87605 13.5195 7.82703C13.4705 7.77983 13.3961 7.77438 13.3543 7.81614C13.3107 7.8579 13.2181 11.0207 13.1455 14.8425C13.0729 18.6643 12.964 21.8198 12.9041 21.8561C12.8441 21.8906 12.0199 21.0627 11.0703 20.0188Z" fill="#E2B532"/>
</svg>
