<svg width="1440" height="866" viewBox="0 0 1440 866" fill="none" xmlns="http://www.w3.org/2000/svg">
<path d="M1441.99 0C1416.55 59.1178 1372.37 114.291 1313.53 158.526C1230.95 220.611 1130.18 255.552 1042.51 281.539C1019.93 288.228 996.859 294.731 974.542 301.022C904.269 320.832 831.674 341.292 763.443 370.753C672.248 295 544.832 255.143 417.808 267.628C267.067 282.459 118.332 363.448 -1 495.678L2.83575 499.141C121.304 367.873 268.861 287.478 418.315 272.776C543.064 260.494 668.154 299.254 758.144 373.069C757.746 373.245 757.353 373.42 756.955 373.596C646.696 422.349 569.578 490.694 533.935 571.245C494.409 660.588 513.004 791.396 603.686 843.732C629.414 858.578 659.108 865.893 689.308 865.893C727.468 865.893 766.441 854.215 799.215 831.299C853.665 793.242 889.484 727.248 895.021 654.783C900.004 589.638 880.98 519.84 841.455 458.246C821.449 427.074 796.527 398.973 767.873 374.485C835.107 345.707 906.662 325.536 975.953 306.006C998.285 299.714 1021.38 293.201 1043.98 286.506C1132.1 260.385 1233.41 225.248 1316.65 162.667C1372.66 120.562 1415.62 68.6296 1442 12.7427V0H1441.99ZM837.097 461.032C876.018 521.685 894.757 590.351 889.861 654.38C884.439 725.32 849.447 789.871 796.253 827.055C739.141 866.973 662.804 871.869 606.271 839.245C517.992 788.3 500.039 660.619 538.659 573.328C573.77 493.977 649.978 426.542 759.043 378.321C760.227 377.799 761.406 377.277 762.59 376.765C791.663 401.309 816.915 429.581 837.097 461.032Z" fill="#A7C8F1"/>
</svg>
